<?xml version="1.0" encoding="UTF-8" standalone="no"?>
<!-- Created with Inkscape (http://www.inkscape.org/) -->

<svg
   xmlns:dc="http://purl.org/dc/elements/1.1/"
   xmlns:cc="http://creativecommons.org/ns#"
   xmlns:rdf="http://www.w3.org/1999/02/22-rdf-syntax-ns#"
   xmlns:svg="http://www.w3.org/2000/svg"
   xmlns="http://www.w3.org/2000/svg"
   xmlns:xlink="http://www.w3.org/1999/xlink"
   xmlns:sodipodi="http://sodipodi.sourceforge.net/DTD/sodipodi-0.dtd"
   xmlns:inkscape="http://www.inkscape.org/namespaces/inkscape"
   width="4.4889212cm"
   height="2.5361001cm"
   viewBox="0 0 44.889212 25.361001"
   version="1.1"
   id="svg8"
   inkscape:version="0.92.4 (5da689c313, 2019-01-14)"
   sodipodi:docname="sounditout_logo.svg"
   inkscape:export-filename="E:\OneDrive\Sound it out\logo V2.png"
   inkscape:export-xdpi="96"
   inkscape:export-ydpi="96">
  <defs
     id="defs2">
    <linearGradient
       inkscape:collect="always"
       id="linearGradient2384">
      <stop
         style="stop-color:#000000;stop-opacity:1;"
         offset="0"
         id="stop2380" />
      <stop
         style="stop-color:#000000;stop-opacity:0;"
         offset="1"
         id="stop2382" />
    </linearGradient>
    <clipPath
       clipPathUnits="userSpaceOnUse"
       id="clipPath4840">
      <rect
         style="fill:none;fill-opacity:1;stroke:#ff0000;stroke-width:0.26458332"
         id="rect4842"
         width="707.57141"
         height="423.33331"
         x="99.785713"
         y="161.9762"
         ry="13.637312" />
    </clipPath>
    <linearGradient
       inkscape:collect="always"
       xlink:href="#linearGradient2384"
       id="linearGradient2386"
       x1="75.874336"
       y1="-100.89722"
       x2="858.54492"
       y2="-100.89722"
       gradientUnits="userSpaceOnUse" />
  </defs>
  <sodipodi:namedview
     id="base"
     pagecolor="#ffffff"
     bordercolor="#666666"
     borderopacity="1.0"
     inkscape:pageopacity="0.0"
     inkscape:pageshadow="2"
     inkscape:zoom="0.35"
     inkscape:cx="-731.19287"
     inkscape:cy="-536.79761"
     inkscape:document-units="cm"
     inkscape:current-layer="layer1"
     showgrid="false"
     inkscape:window-width="1920"
     inkscape:window-height="1017"
     inkscape:window-x="-8"
     inkscape:window-y="-8"
     inkscape:window-maximized="1"
     units="cm"
     showguides="true"
     inkscape:guide-bbox="true">
    <sodipodi:guide
       position="-513.32829,393.96382"
       orientation="0,1"
       id="guide4848"
       inkscape:locked="false" />
  </sodipodi:namedview>
  <metadata
     id="metadata5">
    <rdf:RDF>
      <cc:Work
         rdf:about="">
        <dc:format>image/svg+xml</dc:format>
        <dc:type
           rdf:resource="http://purl.org/dc/dcmitype/StillImage" />
        <dc:title />
      </cc:Work>
    </rdf:RDF>
  </metadata>
  <g
     inkscape:groupmode="layer"
     id="layer3"
     inkscape:label="Layer 3"
     style="display:none"
     transform="translate(-377.5554,-299.44231)">
    <path
       style="fill:#000000;stroke-width:0.6773333"
       d="m 83.271421,443.26042 -1.47274,-1.56765 V 336.58042 c 0,-122.12434 -1.14581,-107.81789 8.63602,-107.82744 6.8378,-0.007 19.368919,-0.99924 26.246649,-2.0789 11.72237,-1.84018 18.56794,-4.23384 37.59199,-13.14462 15.23047,-7.1339 24.49891,-10.87466 32.33818,-13.05172 5.83997,-1.62182 7.75061,-1.83038 16.42982,-1.79338 11.72571,0.0499 18.95463,1.55336 27.61738,5.7434 6.66228,3.22243 13.84538,9.63702 17.59589,15.71332 2.14248,3.4711 2.59672,3.87915 3.19545,2.8705 7.14569,-12.03805 17.10022,-19.3187 31.17792,-22.80334 4.85199,-1.201 8.10029,-1.51416 15.91735,-1.53451 8.64291,-0.0216 10.61424,0.1944 16.4298,1.80687 7.83444,2.17236 17.09636,5.90964 32.33818,13.04886 19.02406,8.91078 25.86964,11.30444 37.59202,13.14462 6.87771,1.07966 19.40883,2.07221 26.24667,2.0789 9.78195,0.01 8.63598,-14.3113 8.63598,107.92239 v 105.20724 l -1.56765,1.47273 -1.56765,1.47274 H 250.69841 84.744151 Z M 103.812,430.89841 c 11.66285,-2.02037 23.09817,-5.10835 40.03908,-10.81215 19.27346,-6.48914 31.84073,-9.8855 42.34385,-11.44358 9.26652,-1.37465 21.41018,-1.38852 26.69476,-0.0305 8.03242,2.06412 17.89642,7.60344 25.13384,14.11435 1.91738,1.72493 3.66998,3.13625 3.89464,3.13625 0.22464,0 0.40556,-42.1386 0.40198,-93.64133 l -0.007,-93.64133 -3.48804,-4.64402 c -6.94104,-9.24171 -17.57647,-16.60283 -27.65602,-19.14179 -6.03256,-1.51954 -14.74629,-0.95234 -22.35199,1.45493 -3.16653,1.00224 -12.31053,4.72006 -20.32001,8.26181 -15.88233,7.0231 -24.61557,10.12366 -34.59177,12.28105 -9.05592,1.95837 -22.08951,3.48141 -29.79276,3.48141 h -6.512549 l -0.4499,45.83175 c -0.60438,61.56924 -0.57081,145.85407 0.0581,145.8514 0.27938,-0.002 3.251179,-0.47738 6.603979,-1.05818 z m 301.07465,-38.79036 c 0,-21.91788 -0.20232,-65.00499 -0.44946,-95.74913 l -0.44943,-55.89845 -10.21857,-0.38011 c -17.19972,-0.63984 -35.68641,-4.66615 -50.17372,-10.92761 -3.72946,-1.61186 -11.433,-4.95276 -17.11898,-7.42416 -14.20138,-6.17264 -19.09169,-7.48587 -27.93116,-7.50066 -7.73764,-0.012 -11.52247,0.90975 -18.288,4.45842 -5.35034,2.80634 -13.21514,9.65479 -17.394,15.14621 l -3.60333,4.73515 v 93.64752 c 0,51.50614 0.18384,93.64752 0.40848,93.64752 0.22464,0 1.97726,-1.41132 3.89467,-3.13625 4.9722,-4.47312 10.61412,-8.16256 16.95235,-11.08579 7.46323,-3.4421 10.51577,-4.06663 19.85376,-4.06197 15.19315,0.007 28.46122,2.90282 57.40155,12.52564 18.8904,6.28116 37.42962,11.02505 45.93051,11.75288 1.1166,0.0955 1.18533,-2.20906 1.18533,-39.74921 z"
       id="path3900"
       inkscape:connector-curvature="0" />
  </g>
  <g
     inkscape:label="Layer 1"
     inkscape:groupmode="layer"
     id="layer1"
     transform="translate(-444.76503,394.87564)"
     style="display:inline">
    <rect
       id="rect3715"
       width="2.0702078"
       height="10.591672"
       x="466.13089"
       y="-394.87564"
       style="fill:#00b700;fill-opacity:1;stroke-width:0.03112976"
       ry="1.3872143" />
    <rect
       id="rect3715-6"
       width="2.0702078"
       height="5.0922041"
       x="468.79123"
       y="-391.71967"
       style="fill:#00b700;fill-opacity:1;stroke-width:0.02158472"
       ry="1.3872143" />
    <rect
       id="rect3715-1"
       width="2.0702078"
       height="10.285007"
       x="-465.43604"
       y="-394.73508"
       style="fill:#00b700;fill-opacity:1;stroke-width:0.03067579"
       ry="1.3872143"
       transform="scale(-1,1)" />
    <rect
       id="rect3715-6-7"
       width="2.0702078"
       height="5.0922041"
       x="-462.77567"
       y="-391.74585"
       style="fill:#00b700;fill-opacity:1;stroke-width:0.02158472"
       ry="1.3872143"
       transform="scale(-1,1)" />
    <rect
       id="rect3715-6-8-2"
       width="2.0702078"
       height="2.9020412"
       x="-460.19321"
       y="-390.51654"
       style="fill:#00b700;fill-opacity:1;stroke-width:0.01629466"
       ry="1.3872143"
       transform="scale(-1,1)" />
    <rect
       id="rect3715-6-70"
       width="2.0702078"
       height="8.271471"
       x="471.4176"
       y="-393.41791"
       style="fill:#00b700;fill-opacity:1;stroke-width:0.02750964"
       ry="1.3872143" />
    <rect
       id="rect3715-6-8"
       width="2.0702078"
       height="2.9020412"
       x="474.00415"
       y="-390.784"
       style="fill:#00b700;fill-opacity:1;stroke-width:0.01629466"
       ry="1.3872143" />
    <path
       style="fill:#000000;fill-opacity:0.5835694;stroke-width:0.03364241"
       d="m 465.76529,-369.57353 c -0.15201,-0.43727 -0.40311,-0.87639 -0.68216,-1.19296 -0.38093,-0.43215 -1.55588,-0.95019 -2.65043,-1.16857 -0.82821,-0.16525 -1.10531,-0.18699 -2.36404,-0.18554 -1.83516,0.002 -3.45496,0.14842 -5.60146,0.50591 -1.30057,0.21661 -2.44292,0.45561 -5.21458,1.09097 -1.25355,0.28737 -2.19009,0.47711 -2.82596,0.57253 -0.51675,0.0775 -1.68273,0.13175 -1.66134,0.0772 0.01,-0.0247 7.13629,-10.94575 7.18302,-11.0075 0.01,-0.0126 2.13671,-0.2725 2.23535,-0.27313 0.0351,-2e-4 0.47124,-0.75876 1.29523,-2.25263 l 1.24232,-2.25228 0.11775,0.0148 c 2.27717,0.2858 3.98669,0.62606 5.23231,1.04143 1.13446,0.37831 2.63436,1.18441 3.5368,1.90082 0.41434,0.32893 1.04155,0.94081 1.3546,1.32148 0.11838,0.14396 0.22536,0.2575 0.23774,0.25232 0.0124,-0.005 0.15973,-0.16891 0.32746,-0.36384 0.90729,-1.05439 1.92133,-1.80293 3.45772,-2.55239 1.06405,-0.51906 2.05898,-0.83224 3.63338,-1.1437 1.07476,-0.21261 3.00083,-0.49432 3.05126,-0.44627 0.0129,0.0123 0.57076,1.01394 1.2397,2.22591 0.66895,1.21197 1.22611,2.21356 1.23815,2.22576 0.012,0.0122 0.52037,0.0801 1.12962,0.15081 0.79778,0.0926 1.12373,0.14291 1.16494,0.17967 0.0315,0.0281 1.63828,2.4733 3.57068,5.43383 1.93241,2.96053 3.54214,5.42654 3.57719,5.48002 l 0.0637,0.0972 -0.60411,-0.0188 c -0.93601,-0.0292 -1.88379,-0.19449 -4.28796,-0.74782 -4.4209,-1.01749 -6.52189,-1.35731 -9.25166,-1.49638 -2.53303,-0.12904 -4.02658,0.0986 -5.45935,0.83228 -0.46876,0.24003 -0.65168,0.38158 -0.88511,0.68493 -0.16436,0.2136 -0.40676,0.65416 -0.50236,0.91303 l -0.059,0.1598 h -1.40947 c -1.31212,0 -1.41088,-0.004 -1.42993,-0.0589 z m -16.32763,-2.16043 c 4.82008,-1.10972 7.09824,-1.45059 10.26093,-1.53533 2.47834,-0.0664 4.54257,0.35265 5.84905,1.18741 0.0992,0.0634 0.18697,0.10851 0.19514,0.10034 0.0215,-0.0215 -0.45593,-0.44462 -0.75221,-0.6667 -1.78358,-1.3369 -4.67368,-1.99505 -8.12792,-1.85093 -1.81883,0.0759 -3.22655,0.24536 -5.52238,0.66482 -0.55411,0.10124 -1.02574,0.17975 -1.04807,0.17446 -0.0237,-0.006 0.70355,-1.38167 1.7436,-3.29933 0.98132,-1.80935 1.77408,-3.29986 1.7617,-3.31224 -0.0298,-0.0298 -1.16028,0.10871 -1.19787,0.14675 -0.036,0.0364 -5.55322,8.82862 -5.57402,8.88268 -0.0182,0.0472 0.75614,-0.11069 2.41205,-0.49193 z m 35.1697,-3.92463 c -1.52995,-2.44013 -2.79208,-4.44837 -2.80474,-4.46276 -0.0299,-0.034 -1.02031,-0.16589 -1.14424,-0.15239 -0.0945,0.0103 -0.0877,0.0236 1.50236,2.95405 0.87849,1.61904 1.68672,3.11124 1.79608,3.31601 l 0.19882,0.3723 -0.59666,-0.11204 c -1.61554,-0.30339 -2.90175,-0.50022 -4.01137,-0.61385 -3.49638,-0.35808 -6.23065,-0.11715 -8.37696,0.73812 -0.93593,0.37296 -1.91865,0.99477 -2.42225,1.53267 l -0.11775,0.12577 0.15139,-0.0907 c 1.06384,-0.63736 2.23032,-0.98714 3.90252,-1.17019 0.49176,-0.0538 2.52925,-0.0526 3.3306,0.002 2.7221,0.1856 4.7446,0.5205 8.86477,1.4679 1.41172,0.32461 2.48085,0.55492 2.49934,0.5384 0.005,-0.005 -1.24197,-2.00522 -2.77191,-4.44536 z m -17.78435,-1.47607 -0.009,-2.96053 -0.10765,-0.22724 c -0.48044,-1.01425 -1.7798,-2.10292 -3.56339,-2.98559 -0.62868,-0.31112 -1.41856,-0.58818 -2.34441,-0.82232 -1.12442,-0.28435 -2.83322,-0.58823 -3.37919,-0.60092 l -0.28303,-0.007 -2.50493,4.77311 c -1.37771,2.62521 -2.50056,4.77721 -2.49521,4.78222 0.005,0.005 0.22923,-0.019 0.49753,-0.0534 1.32012,-0.16926 3.11896,-0.27579 4.6763,-0.27694 3.48599,-0.003 5.97471,0.51581 7.83098,1.63112 0.57426,0.34503 1.18041,0.8574 1.52434,1.2885 l 0.14866,0.18634 0.009,-0.8836 c 0.005,-0.48598 0.005,-2.21584 0,-3.84413 z m 0.86565,4.58819 c 0.19004,-0.25791 0.84059,-0.8535 1.19435,-1.09344 1.58205,-1.07304 3.46064,-1.60772 6.44248,-1.83364 1.52742,-0.11573 4.99741,0.0205 6.59035,0.25872 0.18307,0.0274 0.33748,0.0452 0.34312,0.0395 0.006,-0.006 -1.12106,-2.16676 -2.50379,-4.80248 l -2.51405,-4.79222 -0.15039,0.01 c -0.86474,0.0566 -2.87841,0.44513 -4.05859,0.78304 -0.8213,0.23516 -1.16144,0.36374 -1.81102,0.68466 -1.96357,0.97005 -3.44182,2.31095 -3.64714,3.30828 -0.0423,0.20559 -0.0535,7.57682 -0.0115,7.5755 0.0139,-4.1e-4 0.0707,-0.0624 0.12616,-0.13778 z"
       id="path2378"
       inkscape:connector-curvature="0" />
  </g>
  <g
     inkscape:groupmode="layer"
     id="layer2"
     inkscape:label="Layer 2"
     transform="translate(-444.76503,394.87564)"
     style="display:none">
    <text
       xml:space="preserve"
       style="font-style:normal;font-weight:normal;font-size:105.83332825px;line-height:1.25;font-family:sans-serif;letter-spacing:0px;word-spacing:0px;fill:#00b700;fill-opacity:1;stroke:none;stroke-width:2.64583325"
       x="69.590485"
       y="-95.971283"
       id="text3821"><tspan
         sodipodi:role="line"
         id="tspan3819"
         x="69.590485"
         y="-95.971283"
         style="font-style:normal;font-variant:normal;font-weight:normal;font-stretch:normal;font-size:169.33332825px;font-family:'Tw Cen MT';-inkscape-font-specification:'Tw Cen MT';fill:#00b700;fill-opacity:1;stroke-width:2.64583325">Sound it out</tspan></text>
  </g>
  <g
     inkscape:groupmode="layer"
     id="layer5"
     inkscape:label="closed book"
     style="display:none"
     transform="translate(-377.5554,-299.44231)">
    <path
       style="fill:#31c100;fill-opacity:1;stroke:#ff0000;stroke-width:0.99999994"
       d="m 968.12109,203.27539 c -88.63997,0 -160,76.50837 -160,171.54297 V 1664.1406 c 0,95.0346 71.36064,171.2128 160,171.541 l 1157.31671,4.2857 c 135.6569,0.5024 110.5679,-180.3663 11.9955,-181.847 l -112.3301,-1.6874 -918.5309,-7.2044 c -69.268,-0.5433 -125.03714,-50.2867 -125.03714,-112.75 0,-62.4633 55.76704,-112.748 125.03714,-112.748 l 1116.2683,3.5355 -4.5457,-1052.44764 c -0.4105,-95.03371 -71.36,-171.54297 -160,-171.54297 z"
       transform="scale(0.26458333)"
       id="rect4708"
       inkscape:connector-curvature="0"
       sodipodi:nodetypes="sssssscssscsss" />
  </g>
</svg>
